<?xml version="1.0" standalone="no"?>
<!DOCTYPE svg PUBLIC "-//W3C//DTD SVG 20010904//EN"
 "http://www.w3.org/TR/2001/REC-SVG-20010904/DTD/svg10.dtd">
<svg version="1.0" xmlns="http://www.w3.org/2000/svg"
 width="840.000000pt" height="840.000000pt" viewBox="0 0 840.000000 840.000000"
 preserveAspectRatio="xMidYMid meet">
<metadata>
Created by potrace 1.11, written by Peter Selinger 2001-2013
</metadata>
<g transform="translate(0.000000,840.000000) scale(0.100000,-0.100000)"
fill="#000000" stroke="none">
<path d="M3680 8075 c-30 -30 -56 -47 -80 -51 -43 -8 -86 -46 -110 -99 -10
-22 -32 -53 -49 -69 -17 -17 -31 -36 -31 -44 0 -8 13 -42 29 -76 17 -34 36
-84 42 -111 17 -66 52 -105 96 -105 l33 0 0 -94 c0 -52 -5 -107 -10 -121 -6
-15 -11 -48 -12 -75 -3 -57 24 -94 73 -105 16 -4 29 -12 29 -18 0 -9 2 -9 8
-1 4 6 34 14 66 17 87 9 110 29 116 103 5 55 8 62 53 103 26 24 47 52 47 62 0
10 4 20 9 24 5 3 13 31 17 63 3 31 10 62 14 67 5 6 10 60 12 122 3 107 4 113
32 142 26 27 28 35 24 86 -5 55 -6 58 -89 141 l-84 84 -95 0 -96 0 -44 -45z
m250 -620 c-16 -19 -90 -20 -116 0 -17 13 -12 14 55 15 64 0 72 -2 61 -15z"/>
<path d="M4938 7773 c-20 -22 -27 -42 -32 -93 -14 -159 -19 -196 -29 -208 -7
-9 -7 -16 1 -24 7 -7 12 -45 12 -93 0 -87 10 -108 55 -117 19 -3 20 -11 18
-113 -1 -104 -11 -229 -33 -425 -5 -47 -14 -132 -20 -190 -14 -143 -28 -259
-35 -295 -3 -16 -8 -40 -11 -52 -5 -27 -42 -20 -54 11 -4 11 -20 38 -34 59
-14 21 -26 41 -26 46 0 4 -9 16 -20 26 -11 10 -20 23 -20 30 0 7 -9 20 -19 29
-11 10 -23 31 -26 47 -4 16 -10 29 -15 29 -9 0 -78 -81 -102 -120 -14 -22 -15
-63 -6 -345 11 -373 11 -365 21 -358 12 7 57 -25 57 -41 0 -7 9 -21 20 -31 11
-10 20 -23 20 -30 0 -6 11 -22 25 -35 14 -13 25 -29 25 -35 0 -7 9 -20 20 -30
11 -10 20 -23 20 -30 0 -7 9 -20 20 -30 11 -10 20 -23 20 -29 0 -20 85 -96
135 -122 134 -67 308 2 381 153 25 50 25 56 19 185 -3 73 -10 232 -15 353 -5
121 -14 319 -20 440 -14 263 -16 690 -6 760 7 44 5 52 -13 69 -20 18 -21 29
-21 197 l0 177 -30 57 c-16 31 -30 65 -30 75 0 11 -4 22 -10 25 -5 3 -10 16
-10 29 0 37 -30 56 -88 56 -28 0 -54 5 -57 10 -12 20 -61 10 -87 -17z"/>
<path d="M3700 7085 c0 -5 5 -17 10 -25 5 -8 10 -10 10 -5 0 6 -5 17 -10 25
-5 8 -10 11 -10 5z"/>
<path d="M4012 7060 c0 -14 2 -19 5 -12 2 6 2 18 0 25 -3 6 -5 1 -5 -13z"/>
<path d="M3721 7035 c0 -5 6 -21 14 -35 8 -14 14 -20 14 -15 0 6 -6 21 -14 35
-8 14 -14 21 -14 15z"/>
<path d="M4002 7010 c0 -14 2 -19 5 -12 2 6 2 18 0 25 -3 6 -5 1 -5 -13z"/>
<path d="M3991 6964 c0 -11 3 -14 6 -6 3 7 2 16 -1 19 -3 4 -6 -2 -5 -13z"/>
<path d="M3750 6967 c0 -11 110 -227 115 -227 5 0 -102 219 -111 229 -2 2 -4
1 -4 -2z"/>
<path d="M3981 6924 c0 -11 3 -14 6 -6 3 7 2 16 -1 19 -3 4 -6 -2 -5 -13z"/>
<path d="M3966 6874 c-4 -14 -5 -28 -3 -31 3 -2 8 8 11 23 4 14 5 28 3 31 -3
2 -8 -8 -11 -23z"/>
<path d="M3931 6758 l-23 -71 -20 24 -19 24 17 -35 c9 -19 17 -36 19 -37 1 -2
14 33 30 77 15 45 26 83 23 85 -2 3 -15 -28 -27 -67z"/>
<path d="M3914 6490 c0 -91 2 -128 3 -82 2 45 2 119 0 165 -1 45 -3 8 -3 -83z"/>
<path d="M2654 6522 c-27 -53 -59 -114 -72 -135 -44 -73 -60 -104 -67 -135 -3
-18 -11 -34 -16 -37 -5 -4 -9 -15 -9 -25 0 -11 -9 -35 -20 -55 -11 -20 -20
-44 -20 -55 0 -10 -4 -22 -10 -25 -5 -3 -10 -15 -10 -25 0 -11 -9 -35 -20 -55
-11 -20 -20 -49 -20 -65 0 -16 -4 -32 -10 -35 -5 -3 -10 -21 -10 -40 0 -19 -4
-37 -10 -40 -6 -3 -10 -51 -10 -108 0 -96 2 -106 35 -174 20 -39 42 -77 50
-83 8 -7 15 -18 15 -25 0 -6 9 -20 20 -30 11 -10 20 -23 20 -30 0 -6 14 -24
30 -40 17 -16 30 -34 30 -40 0 -6 23 -33 50 -60 28 -27 50 -54 50 -60 0 -6 36
-46 80 -90 44 -44 80 -84 80 -89 0 -6 96 -108 213 -227 116 -120 248 -256 291
-303 47 -52 87 -86 98 -86 33 0 85 61 102 120 9 29 16 88 16 131 0 77 0 77
-63 180 -35 57 -103 174 -152 259 -48 85 -97 164 -109 175 -12 11 -38 54 -60
95 -49 97 -59 114 -75 134 -20 24 -61 107 -61 123 0 16 -19 51 -44 80 -15 17
-17 31 -12 75 4 29 9 80 12 113 5 52 11 65 43 100 21 22 46 56 55 75 10 19 35
67 56 105 65 116 111 207 108 209 -2 1 -43 11 -93 24 -49 12 -133 43 -185 69
-77 37 -109 61 -172 124 l-77 78 -47 -97z"/>
<path d="M3923 6160 c0 -41 2 -58 4 -37 2 20 2 54 0 75 -2 20 -4 3 -4 -38z"/>
<path d="M3933 6025 c0 -22 2 -30 4 -17 2 12 2 30 0 40 -3 9 -5 -1 -4 -23z"/>
<path d="M3942 5955 c0 -16 2 -22 5 -12 2 9 2 23 0 30 -3 6 -5 -1 -5 -18z"/>
<path d="M3952 5900 c0 -14 2 -19 5 -12 2 6 2 18 0 25 -3 6 -5 1 -5 -13z"/>
<path d="M3961 5854 c0 -11 3 -14 6 -6 3 7 2 16 -1 19 -3 4 -6 -2 -5 -13z"/>
<path d="M3971 5814 c0 -11 3 -14 6 -6 3 7 2 16 -1 19 -3 4 -6 -2 -5 -13z"/>
<path d="M3990 5755 c0 -5 5 -17 10 -25 5 -8 10 -10 10 -5 0 6 -5 17 -10 25
-5 8 -10 11 -10 5z"/>
<path d="M4010 5705 c0 -19 66 -109 107 -145 41 -36 108 -68 119 -58 2 3 -13
10 -33 16 -53 16 -109 65 -154 135 -22 33 -39 56 -39 52z"/>
<path d="M4490 5558 c-19 -16 -26 -26 -15 -20 18 9 64 53 54 52 -2 -1 -20 -15
-39 -32z"/>
<path d="M4395 5510 c-13 -6 -15 -9 -5 -9 8 0 22 4 30 9 18 12 2 12 -25 0z"/>
<path d="M4278 5493 c17 -2 47 -2 65 0 17 2 3 4 -33 4 -36 0 -50 -2 -32 -4z"/>
<path d="M4410 4686 c0 -13 113 -227 118 -222 2 3 -23 56 -57 118 -33 62 -61
109 -61 104z"/>
<path d="M3577 4563 c-10 -101 -39 -174 -88 -217 l-40 -37 236 -477 236 -477
-51 -45 c-49 -43 -90 -95 -90 -114 0 -5 13 9 29 31 36 49 112 116 122 106 4
-5 23 -43 43 -85 l35 -77 -50 -36 c-66 -49 -93 -84 -78 -101 13 -16 124 -19
134 -4 12 19 71 11 91 -12 11 -13 63 -108 114 -213 52 -104 100 -198 108 -207
19 -22 82 -149 82 -164 0 -6 18 -46 40 -89 22 -43 40 -83 40 -90 0 -7 18 -47
40 -90 22 -43 40 -83 40 -90 0 -7 18 -47 40 -90 22 -43 40 -83 40 -90 0 -10
28 -73 47 -104 1 -1 40 22 86 53 86 57 216 121 347 171 41 16 81 35 88 44 14
18 16 87 2 96 -5 3 -10 21 -10 40 0 19 -4 37 -10 40 -5 3 -10 21 -10 40 0 19
-4 37 -10 40 -5 3 -10 21 -10 40 0 19 -4 37 -10 40 -5 3 -10 21 -10 40 0 19
-4 37 -10 40 -5 3 -10 21 -10 40 0 19 -4 37 -10 40 -5 3 -10 21 -10 40 0 19
-4 37 -10 40 -5 3 -10 21 -10 40 0 19 -4 37 -10 40 -5 3 -10 17 -10 30 0 13
-4 27 -10 30 -5 3 -10 17 -10 30 0 13 -4 27 -10 30 -5 3 -10 17 -10 30 0 13
-4 27 -10 30 -5 3 -10 17 -10 30 0 13 -4 27 -10 30 -5 3 -10 17 -10 30 0 13
-4 27 -10 30 -5 3 -10 17 -10 30 0 13 -4 27 -10 30 -5 3 -10 17 -10 30 0 13
-4 27 -10 30 -5 3 -10 17 -10 30 0 13 -4 27 -10 30 -5 3 -10 17 -10 30 0 13
-4 27 -10 30 -5 3 -10 21 -10 40 0 19 -4 37 -10 40 -5 3 -10 29 -10 58 0 47 3
55 45 97 48 49 53 80 11 80 -44 -1 -196 -40 -292 -75 -129 -48 -394 -176 -513
-248 -52 -31 -97 -57 -100 -57 -4 0 -24 34 -44 76 -29 58 -35 79 -27 90 17 19
178 114 295 172 206 102 388 172 530 202 50 10 78 19 64 19 -46 2 -215 -46
-337 -95 -140 -55 -400 -185 -497 -248 -38 -25 -73 -42 -77 -38 -4 4 -110 217
-236 473 l-230 467 30 22 c52 39 104 187 96 273 -2 19 -6 4 -11 -40z"/>
<path d="M3372 4015 c-6 -22 -41 -157 -78 -300 -36 -143 -72 -279 -78 -303
l-11 -42 -78 39 c-43 22 -76 34 -74 28 3 -10 106 -68 141 -80 4 -1 -4 -44 -20
-96 -29 -99 -28 -98 -88 -75 -13 5 -16 -1 -16 -26 0 -17 -4 -50 -9 -73 -5 -23
-14 -73 -21 -112 -13 -79 -24 -135 -50 -250 -10 -44 -21 -98 -24 -120 -3 -22
-10 -60 -15 -85 -5 -25 -14 -72 -21 -105 -7 -33 -16 -78 -20 -100 -4 -22 -13
-67 -20 -100 -14 -73 -24 -122 -41 -200 -7 -33 -13 -84 -13 -114 l-1 -55 75
-32 c131 -57 244 -85 366 -91 78 -4 113 -2 118 6 4 6 17 11 30 11 20 0 25 13
64 163 23 89 55 209 71 267 15 58 42 157 60 220 17 63 40 147 51 185 11 39 29
102 40 140 11 39 34 121 50 184 17 62 32 117 35 121 2 4 -35 10 -83 14 -193
16 -549 105 -545 137 1 13 38 141 47 165 3 8 35 2 103 -18 192 -57 455 -105
439 -79 -4 6 -21 11 -38 11 -65 0 -370 71 -470 109 -25 9 -26 13 -17 43 39
131 159 622 156 636 -2 10 -8 1 -15 -23z"/>
<path d="M5353 1306 c-111 -52 -198 -124 -277 -229 -42 -57 -42 -64 15 -183
22 -45 39 -85 39 -90 0 -4 20 -49 44 -98 24 -50 52 -116 61 -146 27 -86 65
-160 89 -171 22 -10 76 3 76 18 0 5 -23 23 -50 40 -33 22 -48 38 -44 48 5 11
18 6 65 -26 65 -44 74 -43 118 13 l21 26 -75 48 c-46 30 -75 56 -75 67 0 9 3
17 6 17 4 0 42 -25 86 -56 84 -59 97 -59 98 -6 0 12 4 22 9 22 5 0 11 7 15 15
4 10 -18 30 -72 66 -42 29 -79 54 -81 56 -3 2 0 8 6 14 8 8 32 -3 87 -40 41
-28 78 -51 81 -51 12 0 35 29 35 44 0 9 5 16 10 16 30 0 1 35 -65 80 -41 28
-75 55 -75 60 0 23 23 15 88 -30 74 -53 102 -61 102 -32 0 10 9 24 20 32 11 8
20 19 20 25 0 5 -34 33 -74 61 -52 35 -72 54 -67 63 6 10 30 -1 92 -43 46 -31
88 -56 94 -56 6 0 17 9 25 20 8 11 22 20 31 20 9 0 19 6 22 14 4 10 -25 35
-88 76 -83 55 -106 80 -74 80 5 0 54 -30 108 -66 l100 -66 36 36 c20 20 34 40
31 44 -2 4 -47 36 -100 72 -87 58 -106 80 -72 80 7 0 52 -27 99 -60 48 -33 89
-60 90 -60 12 0 47 40 47 54 0 9 5 16 10 16 25 0 4 22 -70 70 -44 29 -77 56
-74 61 9 15 23 10 84 -31 58 -39 90 -50 90 -30 0 6 -4 10 -10 10 -5 0 -10 7
-10 15 0 21 -45 65 -65 65 -9 0 -13 5 -10 10 4 6 -25 10 -80 10 -84 0 -163
-22 -180 -50 -3 -5 -23 -17 -43 -26 -20 -10 -46 -25 -57 -35 -11 -9 -46 -25
-77 -34 -53 -15 -108 -59 -108 -86 0 -5 -4 -9 -10 -9 -18 0 -11 28 16 59 41
49 23 62 -23 16 -22 -22 -42 -47 -45 -55 -7 -21 -21 -5 -14 17 7 21 45 64 78
87 16 12 19 19 11 27 -14 14 -90 -36 -120 -77 -11 -15 -26 -25 -33 -22 -18 6
57 88 105 114 34 18 41 36 29 68 -8 21 -9 20 -71 -8z"/>
<path d="M2656 1028 c-3 -13 -13 -63 -24 -113 -23 -103 -34 -162 -58 -290 -9
-49 -19 -96 -21 -102 -4 -10 122 -13 593 -16 l599 -2 -595 -3 -596 -2 -10 -38
-10 -39 614 -7 c338 -3 617 -4 620 -1 10 9 -18 99 -33 111 -8 6 -15 15 -15 20
0 5 -28 37 -62 71 -73 71 -115 88 -197 79 -31 -3 -99 -10 -151 -15 -52 -5
-110 -14 -129 -20 -19 -6 -37 -9 -39 -6 -11 11 14 25 66 36 31 7 61 16 66 21
17 14 -136 9 -194 -7 -76 -20 -89 -19 -96 9 -8 32 -29 39 -71 25 -19 -6 -37
-8 -41 -5 -21 21 121 66 210 66 l68 0 0 38 c0 20 4 51 9 67 l8 30 -96 1 c-114
2 -195 21 -310 75 -46 21 -88 39 -92 39 -5 0 -11 -10 -13 -22z"/>
</g>
</svg>
