<svg id="Laag_1" data-name="Laag 1" xmlns="http://www.w3.org/2000/svg" viewBox="0 0 560.64 73.82"><defs><style>.cls-1{fill:none;stroke:#525b6b;stroke-miterlimit:10;stroke-width:4px;}</style></defs><path class="cls-1" d="M149.08,118.57h9.7L174,177.68l16.8-59.11H201l16,58.91,15.3-58.91h9.8l-20.2,69.71h-10.2l-16.21-56.11-16.8,56.11-10.1.1Z" transform="translate(-146.45 -116.57)"/><path class="cls-1" d="M293.28,172.78h-30.4l-5.6,15.5h-9.6L272.88,119h10.5l25.11,69.31h-9.61Zm-15.2-42.61-12.6,35.21h25.2Z" transform="translate(-146.45 -116.57)"/><path class="cls-1" d="M328.58,118.57v62.31H353v7.4h-33.5V118.57Z" transform="translate(-146.45 -116.57)"/><path class="cls-1" d="M371.78,156.47v31.81h-9.1V118.57h9.1v32.3l28.8-32.3h11.5l-31.6,34.9,31.9,34.81h-11.9Z" transform="translate(-146.45 -116.57)"/><path class="cls-1" d="M463.78,172.78h-30.4l-5.6,15.5h-9.6L443.38,119h10.5L479,188.28h-9.6Zm-15.2-42.61L436,165.38h25.2Z" transform="translate(-146.45 -116.57)"/><path class="cls-1" d="M484.58,118.57h9.7l15.2,59.11,16.8-59.11h10.2l16,58.91,15.3-58.91h9.8l-20.2,69.71h-10.2L531,132.17l-16.8,56.11-10.1.1Z" transform="translate(-146.45 -116.57)"/><path class="cls-1" d="M628.78,172.78h-30.4l-5.6,15.5h-9.6L608.38,119h10.5L644,188.28h-9.6Zm-15.2-42.61L601,165.38h25.2Z" transform="translate(-146.45 -116.57)"/><path class="cls-1" d="M649.18,118.57h10.1l17.2,35.3,17.2-35.3h10.1L681.08,162v26.31H672V162Z" transform="translate(-146.45 -116.57)"/></svg>